# xmcd
#
# Track frame offsets:
#	150
#	15862
#	30883
#	48684
#	63869
#	80988
#	94419
#	104600
#	123316
#	143113
#	162594
#	177731
#	192737
#	209911
#	228507
#	239698
#	250669
#	264584
#	279205
#	295546
#	311248
#	324450
#	337711
#
# Disc length: 4661 seconds
#
# Revision: 0
# Processed by: cddbd v1.4PL0 Copyright (c) Steve Scherf et al.
# Submitted via: dBpowerAMP V4.0
#
DISCID=5b123317
DTITLE=Alejandro Fernandez - Edición de colección
DYEAR=1900
DGENRE=
TTITLE0=Con tantita pena
TTITLE1=Loco
TTITLE2=Si he sabido amor
TTITLE3=Mentiroso
TTITLE4=Nadie simplemente nadie
TTITLE5=A una señora
TTITLE6=Mi verdad
TTITLE7=Si tu supieras
TTITLE8=No se olvidar
TTITLE9=Me estoy enamorando
TTITLE10=Como el sol y el trigo
TTITLE11=Dentro de mi corazón
TTITLE12=Como puede ser
TTITLE13=Nube viajera
TTITLE14=No fue mi culpa
TTITLE15=Moño negro
TTITLE16=Es cosa de hombres
TTITLE17=Llorando penas
TTITLE18=Como quien pierde una estrella
TTITLE19=La mitad que me faltaba
TTITLE20=Todo termino
TTITLE21=Intenta vivir sin mi
TTITLE22=?
EXTD=
EXTT0=
EXTT1=
EXTT2=
EXTT3=
EXTT4=
EXTT5=
EXTT6=
EXTT7=
EXTT8=
EXTT9=
EXTT10=
EXTT11=
EXTT12=
EXTT13=
EXTT14=
EXTT15=
EXTT16=
EXTT17=
EXTT18=
EXTT19=
EXTT20=
EXTT21=
EXTT22=
PLAYORDER=
